<mxfile host="app.diagrams.net" agent="Mozilla/5.0 (Windows NT 10.0; Win64; x64) AppleWebKit/537.36 (KHTML, like Gecko) Chrome/130.0.0.0 Safari/537.36" version="24.8.1">
  <diagram name="Page-1" id="b520641d-4fe3-3701-9064-5fc419738815">
    <mxGraphModel dx="2135" dy="1401" grid="1" gridSize="10" guides="1" tooltips="1" connect="1" arrows="1" fold="1" page="1" pageScale="1" pageWidth="1100" pageHeight="850" background="none" math="0" shadow="0">
      <root>
        <mxCell id="0" />
        <mxCell id="1" parent="0" />
        <mxCell id="iwrKPTFdiz0Ykq-0uKMx-37" value="" style="shape=cylinder3;whiteSpace=wrap;html=1;boundedLbl=1;backgroundOutline=1;size=15;" vertex="1" parent="1">
          <mxGeometry x="40" y="100" width="780" height="300" as="geometry" />
        </mxCell>
        <mxCell id="iwrKPTFdiz0Ykq-0uKMx-26" value="Criação dos dados" style="swimlane;html=1;fontStyle=0;childLayout=stackLayout;horizontal=1;startSize=26;fillColor=#e0e0e0;horizontalStack=0;resizeParent=1;resizeLast=0;collapsible=1;marginBottom=0;swimlaneFillColor=#ffffff;align=center;rounded=1;shadow=0;comic=0;labelBackgroundColor=none;strokeWidth=1;fontFamily=Verdana;fontSize=12" vertex="1" parent="1">
          <mxGeometry x="180" y="-223.33" width="510" height="283.33" as="geometry">
            <mxRectangle x="180" y="-223.33" width="150" height="30" as="alternateBounds" />
          </mxGeometry>
        </mxCell>
        <mxCell id="21ea969265ad0168-6" value="Atualização do&amp;nbsp;&lt;span style=&quot;background-color: initial;&quot;&gt;banco de dados&lt;/span&gt;" style="swimlane;html=1;fontStyle=0;childLayout=stackLayout;horizontal=1;startSize=26;fillColor=#e0e0e0;horizontalStack=0;resizeParent=1;resizeLast=0;collapsible=1;marginBottom=0;swimlaneFillColor=#ffffff;align=center;rounded=1;shadow=0;comic=0;labelBackgroundColor=none;strokeWidth=1;fontFamily=Verdana;fontSize=12" parent="1" vertex="1" collapsed="1">
          <mxGeometry x="-180" y="-190" width="270" height="30" as="geometry">
            <mxRectangle x="-180" y="-190" width="300" height="240" as="alternateBounds" />
          </mxGeometry>
        </mxCell>
        <mxCell id="21ea969265ad0168-7" value="Mapeamento por API Google Places&amp;nbsp;" style="text;html=1;spacingLeft=4;spacingRight=4;whiteSpace=wrap;overflow=hidden;rotatable=0;points=[[0,0.5],[1,0.5]];portConstraint=eastwest;" parent="21ea969265ad0168-6" vertex="1">
          <mxGeometry y="26" width="300" height="26" as="geometry" />
        </mxCell>
        <mxCell id="iwrKPTFdiz0Ykq-0uKMx-2" value="Obtenção nome + @place_id" style="text;html=1;strokeColor=none;fillColor=none;spacingLeft=4;spacingRight=4;whiteSpace=wrap;overflow=hidden;rotatable=0;points=[[0,0.5],[1,0.5]];portConstraint=eastwest;" vertex="1" parent="21ea969265ad0168-6">
          <mxGeometry y="52" width="300" height="26" as="geometry" />
        </mxCell>
        <mxCell id="iwrKPTFdiz0Ykq-0uKMx-4" value="Obtenção do @ do instagram via place_ID ou nome" style="text;html=1;strokeColor=none;fillColor=none;spacingLeft=4;spacingRight=4;whiteSpace=wrap;overflow=hidden;rotatable=0;points=[[0,0.5],[1,0.5]];portConstraint=eastwest;" vertex="1" parent="21ea969265ad0168-6">
          <mxGeometry y="78" width="300" height="26" as="geometry" />
        </mxCell>
        <mxCell id="iwrKPTFdiz0Ykq-0uKMx-3" value="Banco de dados completo" style="text;html=1;strokeColor=none;fillColor=none;spacingLeft=4;spacingRight=4;whiteSpace=wrap;overflow=hidden;rotatable=0;points=[[0,0.5],[1,0.5]];portConstraint=eastwest;" vertex="1" parent="21ea969265ad0168-6">
          <mxGeometry y="104" width="300" height="26" as="geometry" />
        </mxCell>
        <mxCell id="iwrKPTFdiz0Ykq-0uKMx-8" value="Definir atualizações" style="text;html=1;strokeColor=none;fillColor=none;spacingLeft=4;spacingRight=4;whiteSpace=wrap;overflow=hidden;rotatable=0;points=[[0,0.5],[1,0.5]];portConstraint=eastwest;" vertex="1" parent="21ea969265ad0168-6">
          <mxGeometry y="130" width="300" height="26" as="geometry" />
        </mxCell>
        <mxCell id="iwrKPTFdiz0Ykq-0uKMx-9" value="Definir armazenamento" style="text;html=1;strokeColor=none;fillColor=none;spacingLeft=4;spacingRight=4;whiteSpace=wrap;overflow=hidden;rotatable=0;points=[[0,0.5],[1,0.5]];portConstraint=eastwest;" vertex="1" parent="21ea969265ad0168-6">
          <mxGeometry y="156" width="300" height="26" as="geometry" />
        </mxCell>
        <mxCell id="21ea969265ad0168-10" value="dados dos estabelecimentos" style="swimlane;html=1;fontStyle=0;childLayout=stackLayout;horizontal=1;startSize=26;fillColor=#e0e0e0;horizontalStack=0;resizeParent=1;resizeLast=0;collapsible=1;marginBottom=0;swimlaneFillColor=#ffffff;align=center;rounded=1;shadow=0;comic=0;labelBackgroundColor=none;strokeWidth=1;fontFamily=Verdana;fontSize=12" parent="1" vertex="1">
          <mxGeometry x="70" y="150" width="181.34" height="170" as="geometry" />
        </mxCell>
        <mxCell id="21ea969265ad0168-11" value="Definir onde receber os dados: núvem/ google drive" style="text;html=1;strokeColor=none;fillColor=none;spacingLeft=4;spacingRight=4;whiteSpace=wrap;overflow=hidden;rotatable=0;points=[[0,0.5],[1,0.5]];portConstraint=eastwest;" parent="21ea969265ad0168-10" vertex="1">
          <mxGeometry y="26" width="181.34" height="34" as="geometry" />
        </mxCell>
        <mxCell id="iwrKPTFdiz0Ykq-0uKMx-11" value="Def organizar os dados" style="text;html=1;strokeColor=none;fillColor=none;spacingLeft=4;spacingRight=4;whiteSpace=wrap;overflow=hidden;rotatable=0;points=[[0,0.5],[1,0.5]];portConstraint=eastwest;" vertex="1" parent="21ea969265ad0168-10">
          <mxGeometry y="60" width="181.34" height="34" as="geometry" />
        </mxCell>
        <mxCell id="iwrKPTFdiz0Ykq-0uKMx-32" value="A partir do @instagram" style="text;html=1;strokeColor=none;fillColor=none;spacingLeft=4;spacingRight=4;whiteSpace=wrap;overflow=hidden;rotatable=0;points=[[0,0.5],[1,0.5]];portConstraint=eastwest;" vertex="1" parent="21ea969265ad0168-10">
          <mxGeometry y="94" width="181.34" height="34" as="geometry" />
        </mxCell>
        <mxCell id="21ea969265ad0168-36" style="edgeStyle=orthogonalEdgeStyle;html=1;labelBackgroundColor=none;startFill=0;startSize=8;endFill=1;endSize=8;fontFamily=Verdana;fontSize=12;entryX=0;entryY=0.46;entryDx=0;entryDy=0;entryPerimeter=0;" parent="1" source="21ea969265ad0168-6" target="iwrKPTFdiz0Ykq-0uKMx-37" edge="1">
          <mxGeometry relative="1" as="geometry">
            <mxPoint x="110" y="290.0000000000002" as="targetPoint" />
            <Array as="points">
              <mxPoint x="-50" y="240" />
              <mxPoint y="240" />
              <mxPoint y="237" />
              <mxPoint x="40" y="237" />
            </Array>
          </mxGeometry>
        </mxCell>
        <mxCell id="iwrKPTFdiz0Ykq-0uKMx-13" value="Scraping via @instaloader" style="swimlane;html=1;fontStyle=0;childLayout=stackLayout;horizontal=1;startSize=26;fillColor=#e0e0e0;horizontalStack=0;resizeParent=1;resizeLast=0;collapsible=1;marginBottom=0;swimlaneFillColor=#ffffff;align=center;rounded=1;shadow=0;comic=0;labelBackgroundColor=none;strokeWidth=1;fontFamily=Verdana;fontSize=12" vertex="1" collapsed="1" parent="1">
          <mxGeometry x="200" y="-170" width="200" height="30" as="geometry">
            <mxRectangle x="200" y="-170" width="190" height="194" as="alternateBounds" />
          </mxGeometry>
        </mxCell>
        <mxCell id="iwrKPTFdiz0Ykq-0uKMx-14" value="Definir se extrai dados de destaques/story ou fotos" style="text;html=1;strokeColor=none;fillColor=none;spacingLeft=4;spacingRight=4;whiteSpace=wrap;overflow=hidden;rotatable=0;points=[[0,0.5],[1,0.5]];portConstraint=eastwest;" vertex="1" parent="iwrKPTFdiz0Ykq-0uKMx-13">
          <mxGeometry y="26" width="190" height="34" as="geometry" />
        </mxCell>
        <mxCell id="iwrKPTFdiz0Ykq-0uKMx-15" value="Salvar foto e descrição/infos no diretório de cada data/lugar" style="text;html=1;strokeColor=none;fillColor=none;spacingLeft=4;spacingRight=4;whiteSpace=wrap;overflow=hidden;rotatable=0;points=[[0,0.5],[1,0.5]];portConstraint=eastwest;" vertex="1" parent="iwrKPTFdiz0Ykq-0uKMx-13">
          <mxGeometry y="60" width="190" height="50" as="geometry" />
        </mxCell>
        <mxCell id="iwrKPTFdiz0Ykq-0uKMx-33" value="Definir se as informações descrição são suficiente, não precisando ir para o próximo passo" style="text;html=1;strokeColor=none;fillColor=none;spacingLeft=4;spacingRight=4;whiteSpace=wrap;overflow=hidden;rotatable=0;points=[[0,0.5],[1,0.5]];portConstraint=eastwest;" vertex="1" parent="iwrKPTFdiz0Ykq-0uKMx-13">
          <mxGeometry y="110" width="190" height="60" as="geometry" />
        </mxCell>
        <mxCell id="iwrKPTFdiz0Ykq-0uKMx-17" value="Tratamento das infos das&lt;div&gt;&amp;nbsp;fotos via @..&lt;/div&gt;" style="swimlane;html=1;fontStyle=0;childLayout=stackLayout;horizontal=1;startSize=26;fillColor=#e0e0e0;horizontalStack=0;resizeParent=1;resizeLast=0;collapsible=1;marginBottom=0;swimlaneFillColor=#ffffff;align=center;rounded=1;shadow=0;comic=0;labelBackgroundColor=none;strokeWidth=1;fontFamily=Verdana;fontSize=12" vertex="1" collapsed="1" parent="1">
          <mxGeometry x="430" y="-170" width="190" height="40" as="geometry">
            <mxRectangle x="420" y="-180" width="224" height="220" as="alternateBounds" />
          </mxGeometry>
        </mxCell>
        <mxCell id="iwrKPTFdiz0Ykq-0uKMx-18" value="Definir método de extração de dados de foto( por qual biblioteca ou qual IA)" style="text;html=1;strokeColor=none;fillColor=none;spacingLeft=4;spacingRight=4;whiteSpace=wrap;overflow=hidden;rotatable=0;points=[[0,0.5],[1,0.5]];portConstraint=eastwest;" vertex="1" parent="iwrKPTFdiz0Ykq-0uKMx-17">
          <mxGeometry y="26" width="224" height="54" as="geometry" />
        </mxCell>
        <mxCell id="iwrKPTFdiz0Ykq-0uKMx-19" value="definir informações que serão colocadas selecionadas&lt;br&gt;ex: hora/tema/@instagram/etc" style="text;html=1;strokeColor=none;fillColor=none;spacingLeft=4;spacingRight=4;whiteSpace=wrap;overflow=hidden;rotatable=0;points=[[0,0.5],[1,0.5]];portConstraint=eastwest;" vertex="1" parent="iwrKPTFdiz0Ykq-0uKMx-17">
          <mxGeometry y="80" width="224" height="60" as="geometry" />
        </mxCell>
        <mxCell id="iwrKPTFdiz0Ykq-0uKMx-34" value="confirmar se os dados estão corretos" style="text;html=1;strokeColor=none;fillColor=none;spacingLeft=4;spacingRight=4;whiteSpace=wrap;overflow=hidden;rotatable=0;points=[[0,0.5],[1,0.5]];portConstraint=eastwest;" vertex="1" parent="iwrKPTFdiz0Ykq-0uKMx-17">
          <mxGeometry y="140" width="224" height="30" as="geometry" />
        </mxCell>
        <mxCell id="iwrKPTFdiz0Ykq-0uKMx-29" value="Geração de uma tabela com os dados organizados e lançar em um BD" style="text;html=1;strokeColor=none;fillColor=none;spacingLeft=4;spacingRight=4;whiteSpace=wrap;overflow=hidden;rotatable=0;points=[[0,0.5],[1,0.5]];portConstraint=eastwest;" vertex="1" parent="iwrKPTFdiz0Ykq-0uKMx-17">
          <mxGeometry y="170" width="224" height="50" as="geometry" />
        </mxCell>
        <mxCell id="iwrKPTFdiz0Ykq-0uKMx-20" value="" style="endArrow=classic;html=1;rounded=0;entryX=-0.008;entryY=0.1;entryDx=0;entryDy=0;exitX=0.992;exitY=0.059;exitDx=0;exitDy=0;exitPerimeter=0;entryPerimeter=0;" edge="1" parent="1" source="iwrKPTFdiz0Ykq-0uKMx-13" target="iwrKPTFdiz0Ykq-0uKMx-17">
          <mxGeometry width="50" height="50" relative="1" as="geometry">
            <mxPoint x="380" y="-100" as="sourcePoint" />
            <mxPoint x="420" y="-150" as="targetPoint" />
            <Array as="points">
              <mxPoint x="410" y="-210" />
            </Array>
          </mxGeometry>
        </mxCell>
        <mxCell id="iwrKPTFdiz0Ykq-0uKMx-45" value="dados dos eventos" style="swimlane;html=1;fontStyle=0;childLayout=stackLayout;horizontal=1;startSize=26;fillColor=#e0e0e0;horizontalStack=0;resizeParent=1;resizeLast=0;collapsible=1;marginBottom=0;swimlaneFillColor=#ffffff;align=center;rounded=1;shadow=0;comic=0;labelBackgroundColor=none;strokeWidth=1;fontFamily=Verdana;fontSize=12" vertex="1" parent="1">
          <mxGeometry x="330" y="210" width="180" height="80" as="geometry" />
        </mxCell>
        <mxCell id="iwrKPTFdiz0Ykq-0uKMx-47" value="&amp;nbsp;dados dos eventos" style="text;html=1;strokeColor=none;fillColor=none;spacingLeft=4;spacingRight=4;whiteSpace=wrap;overflow=hidden;rotatable=0;points=[[0,0.5],[1,0.5]];portConstraint=eastwest;" vertex="1" parent="iwrKPTFdiz0Ykq-0uKMx-45">
          <mxGeometry y="26" width="180" height="34" as="geometry" />
        </mxCell>
        <mxCell id="iwrKPTFdiz0Ykq-0uKMx-49" value="" style="endArrow=classic;html=1;rounded=0;entryX=0.5;entryY=0;entryDx=0;entryDy=0;entryPerimeter=0;" edge="1" parent="1" target="iwrKPTFdiz0Ykq-0uKMx-37">
          <mxGeometry width="50" height="50" relative="1" as="geometry">
            <mxPoint x="430" y="60" as="sourcePoint" />
            <mxPoint x="290" y="30" as="targetPoint" />
          </mxGeometry>
        </mxCell>
        <mxCell id="iwrKPTFdiz0Ykq-0uKMx-50" value="mídias em redes sociais" style="swimlane;html=1;fontStyle=0;childLayout=stackLayout;horizontal=1;startSize=26;fillColor=#e0e0e0;horizontalStack=0;resizeParent=1;resizeLast=0;collapsible=1;marginBottom=0;swimlaneFillColor=#ffffff;align=center;rounded=1;shadow=0;comic=0;labelBackgroundColor=none;strokeWidth=1;fontFamily=Verdana;fontSize=12" vertex="1" parent="1">
          <mxGeometry x="570" y="165" width="181.34" height="170" as="geometry" />
        </mxCell>
        <mxCell id="iwrKPTFdiz0Ykq-0uKMx-51" value="instagram" style="text;html=1;strokeColor=none;fillColor=none;spacingLeft=4;spacingRight=4;whiteSpace=wrap;overflow=hidden;rotatable=0;points=[[0,0.5],[1,0.5]];portConstraint=eastwest;" vertex="1" parent="iwrKPTFdiz0Ykq-0uKMx-50">
          <mxGeometry y="26" width="181.34" height="34" as="geometry" />
        </mxCell>
        <mxCell id="iwrKPTFdiz0Ykq-0uKMx-52" value="tiktok" style="text;html=1;strokeColor=none;fillColor=none;spacingLeft=4;spacingRight=4;whiteSpace=wrap;overflow=hidden;rotatable=0;points=[[0,0.5],[1,0.5]];portConstraint=eastwest;" vertex="1" parent="iwrKPTFdiz0Ykq-0uKMx-50">
          <mxGeometry y="60" width="181.34" height="34" as="geometry" />
        </mxCell>
        <mxCell id="iwrKPTFdiz0Ykq-0uKMx-53" value="whatsapp ( feature futura)" style="text;html=1;strokeColor=none;fillColor=none;spacingLeft=4;spacingRight=4;whiteSpace=wrap;overflow=hidden;rotatable=0;points=[[0,0.5],[1,0.5]];portConstraint=eastwest;" vertex="1" parent="iwrKPTFdiz0Ykq-0uKMx-50">
          <mxGeometry y="94" width="181.34" height="34" as="geometry" />
        </mxCell>
        <mxCell id="iwrKPTFdiz0Ykq-0uKMx-44" value="" style="endArrow=classic;html=1;rounded=0;exitX=0.5;exitY=0;exitDx=0;exitDy=0;entryX=0.295;entryY=0;entryDx=0;entryDy=0;entryPerimeter=0;" edge="1" parent="1" source="21ea969265ad0168-10" target="iwrKPTFdiz0Ykq-0uKMx-37">
          <mxGeometry width="50" height="50" relative="1" as="geometry">
            <mxPoint x="230" y="70" as="sourcePoint" />
            <mxPoint x="280" y="20" as="targetPoint" />
          </mxGeometry>
        </mxCell>
        <mxCell id="iwrKPTFdiz0Ykq-0uKMx-54" value="" style="endArrow=classic;html=1;rounded=0;entryX=0.25;entryY=1;entryDx=0;entryDy=0;" edge="1" parent="1" target="iwrKPTFdiz0Ykq-0uKMx-26">
          <mxGeometry width="50" height="50" relative="1" as="geometry">
            <mxPoint x="270" y="100" as="sourcePoint" />
            <mxPoint x="430" y="30" as="targetPoint" />
          </mxGeometry>
        </mxCell>
        <mxCell id="iwrKPTFdiz0Ykq-0uKMx-55" value="" style="endArrow=classic;html=1;rounded=0;" edge="1" parent="1" target="iwrKPTFdiz0Ykq-0uKMx-45">
          <mxGeometry width="50" height="50" relative="1" as="geometry">
            <mxPoint x="430" y="100" as="sourcePoint" />
            <mxPoint x="440" y="110" as="targetPoint" />
          </mxGeometry>
        </mxCell>
        <mxCell id="iwrKPTFdiz0Ykq-0uKMx-57" value="Geral" style="swimlane;html=1;fontStyle=0;childLayout=stackLayout;horizontal=1;startSize=26;fillColor=#e0e0e0;horizontalStack=0;resizeParent=1;resizeLast=0;collapsible=1;marginBottom=0;swimlaneFillColor=#ffffff;align=center;rounded=1;shadow=0;comic=0;labelBackgroundColor=none;strokeWidth=1;fontFamily=Verdana;fontSize=12" vertex="1" parent="1">
          <mxGeometry x="120.00000000000001" y="440" width="181.34" height="170" as="geometry" />
        </mxCell>
        <mxCell id="iwrKPTFdiz0Ykq-0uKMx-58" value="Def: Qual IA generativa e/ou site vai criar o conteúdo" style="text;html=1;strokeColor=none;fillColor=none;spacingLeft=4;spacingRight=4;whiteSpace=wrap;overflow=hidden;rotatable=0;points=[[0,0.5],[1,0.5]];portConstraint=eastwest;" vertex="1" parent="iwrKPTFdiz0Ykq-0uKMx-57">
          <mxGeometry y="26" width="181.34" height="54" as="geometry" />
        </mxCell>
        <mxCell id="iwrKPTFdiz0Ykq-0uKMx-60" value="Def identidade visual" style="text;html=1;strokeColor=none;fillColor=none;spacingLeft=4;spacingRight=4;whiteSpace=wrap;overflow=hidden;rotatable=0;points=[[0,0.5],[1,0.5]];portConstraint=eastwest;" vertex="1" parent="iwrKPTFdiz0Ykq-0uKMx-57">
          <mxGeometry y="80" width="181.34" height="34" as="geometry" />
        </mxCell>
        <mxCell id="iwrKPTFdiz0Ykq-0uKMx-112" value="Definir estratégias ( todas)" style="text;html=1;strokeColor=none;fillColor=none;spacingLeft=4;spacingRight=4;whiteSpace=wrap;overflow=hidden;rotatable=0;points=[[0,0.5],[1,0.5]];portConstraint=eastwest;" vertex="1" parent="iwrKPTFdiz0Ykq-0uKMx-57">
          <mxGeometry y="114" width="181.34" height="34" as="geometry" />
        </mxCell>
        <mxCell id="iwrKPTFdiz0Ykq-0uKMx-61" value="" style="endArrow=classic;html=1;rounded=0;exitX=0.5;exitY=1;exitDx=0;exitDy=0;entryX=0.5;entryY=0;entryDx=0;entryDy=0;" edge="1" parent="1" source="iwrKPTFdiz0Ykq-0uKMx-45" target="iwrKPTFdiz0Ykq-0uKMx-57">
          <mxGeometry width="50" height="50" relative="1" as="geometry">
            <mxPoint x="322" y="440" as="sourcePoint" />
            <mxPoint x="290" y="610" as="targetPoint" />
          </mxGeometry>
        </mxCell>
        <mxCell id="iwrKPTFdiz0Ykq-0uKMx-80" value="tiktok" style="swimlane;html=1;fontStyle=0;childLayout=stackLayout;horizontal=1;startSize=26;fillColor=#e0e0e0;horizontalStack=0;resizeParent=1;resizeLast=0;collapsible=1;marginBottom=0;swimlaneFillColor=#ffffff;align=center;rounded=1;shadow=0;comic=0;labelBackgroundColor=none;strokeWidth=1;fontFamily=Verdana;fontSize=12" vertex="1" parent="1">
          <mxGeometry x="409.67" y="440" width="150" height="140" as="geometry" />
        </mxCell>
        <mxCell id="iwrKPTFdiz0Ykq-0uKMx-91" value="Def estratégia&lt;span style=&quot;white-space: pre;&quot;&gt;&#x9;&lt;/span&gt;" style="text;html=1;strokeColor=none;fillColor=none;spacingLeft=4;spacingRight=4;whiteSpace=wrap;overflow=hidden;rotatable=0;points=[[0,0.5],[1,0.5]];portConstraint=eastwest;" vertex="1" parent="iwrKPTFdiz0Ykq-0uKMx-80">
          <mxGeometry y="26" width="150" height="34" as="geometry" />
        </mxCell>
        <mxCell id="iwrKPTFdiz0Ykq-0uKMx-92" value="Criação automatizada" style="text;html=1;strokeColor=none;fillColor=none;spacingLeft=4;spacingRight=4;whiteSpace=wrap;overflow=hidden;rotatable=0;points=[[0,0.5],[1,0.5]];portConstraint=eastwest;" vertex="1" parent="iwrKPTFdiz0Ykq-0uKMx-80">
          <mxGeometry y="60" width="150" height="40" as="geometry" />
        </mxCell>
        <mxCell id="iwrKPTFdiz0Ykq-0uKMx-101" value="Armazenar" style="text;html=1;strokeColor=none;fillColor=none;spacingLeft=4;spacingRight=4;whiteSpace=wrap;overflow=hidden;rotatable=0;points=[[0,0.5],[1,0.5]];portConstraint=eastwest;" vertex="1" parent="iwrKPTFdiz0Ykq-0uKMx-80">
          <mxGeometry y="100" width="150" height="40" as="geometry" />
        </mxCell>
        <mxCell id="iwrKPTFdiz0Ykq-0uKMx-124" style="rounded=0;orthogonalLoop=1;jettySize=auto;html=1;entryX=0.513;entryY=1.063;entryDx=0;entryDy=0;entryPerimeter=0;" edge="1" parent="iwrKPTFdiz0Ykq-0uKMx-80" target="iwrKPTFdiz0Ykq-0uKMx-101">
          <mxGeometry relative="1" as="geometry">
            <mxPoint x="75" y="180" as="targetPoint" />
            <mxPoint x="77" y="190" as="sourcePoint" />
            <Array as="points" />
          </mxGeometry>
        </mxCell>
        <mxCell id="iwrKPTFdiz0Ykq-0uKMx-84" value="instagram" style="swimlane;html=1;fontStyle=0;childLayout=stackLayout;horizontal=1;startSize=26;fillColor=#e0e0e0;horizontalStack=0;resizeParent=1;resizeLast=0;collapsible=1;marginBottom=0;swimlaneFillColor=#ffffff;align=center;rounded=1;shadow=0;comic=0;labelBackgroundColor=none;strokeWidth=1;fontFamily=Verdana;fontSize=12" vertex="1" parent="1">
          <mxGeometry x="605.67" y="440" width="150" height="140" as="geometry" />
        </mxCell>
        <mxCell id="iwrKPTFdiz0Ykq-0uKMx-102" value="Def estratégia&lt;span style=&quot;white-space: pre;&quot;&gt;&#x9;&lt;/span&gt;" style="text;html=1;strokeColor=none;fillColor=none;spacingLeft=4;spacingRight=4;whiteSpace=wrap;overflow=hidden;rotatable=0;points=[[0,0.5],[1,0.5]];portConstraint=eastwest;" vertex="1" parent="iwrKPTFdiz0Ykq-0uKMx-84">
          <mxGeometry y="26" width="150" height="34" as="geometry" />
        </mxCell>
        <mxCell id="iwrKPTFdiz0Ykq-0uKMx-104" value="Armazenar" style="text;html=1;strokeColor=none;fillColor=none;spacingLeft=4;spacingRight=4;whiteSpace=wrap;overflow=hidden;rotatable=0;points=[[0,0.5],[1,0.5]];portConstraint=eastwest;" vertex="1" parent="iwrKPTFdiz0Ykq-0uKMx-84">
          <mxGeometry y="60" width="150" height="40" as="geometry" />
        </mxCell>
        <mxCell id="iwrKPTFdiz0Ykq-0uKMx-103" value="Criação automatizada" style="text;html=1;strokeColor=none;fillColor=none;spacingLeft=4;spacingRight=4;whiteSpace=wrap;overflow=hidden;rotatable=0;points=[[0,0.5],[1,0.5]];portConstraint=eastwest;" vertex="1" parent="iwrKPTFdiz0Ykq-0uKMx-84">
          <mxGeometry y="100" width="150" height="40" as="geometry" />
        </mxCell>
        <mxCell id="iwrKPTFdiz0Ykq-0uKMx-98" value="" style="endArrow=classic;html=1;rounded=0;entryX=0.5;entryY=1;entryDx=0;entryDy=0;exitX=0.5;exitY=0;exitDx=0;exitDy=0;" edge="1" parent="1" source="iwrKPTFdiz0Ykq-0uKMx-80" target="iwrKPTFdiz0Ykq-0uKMx-50">
          <mxGeometry width="50" height="50" relative="1" as="geometry">
            <mxPoint x="600" y="460" as="sourcePoint" />
            <mxPoint x="600" y="410" as="targetPoint" />
          </mxGeometry>
        </mxCell>
        <mxCell id="iwrKPTFdiz0Ykq-0uKMx-100" value="" style="endArrow=classic;html=1;rounded=0;exitX=0.5;exitY=0;exitDx=0;exitDy=0;" edge="1" parent="1" source="iwrKPTFdiz0Ykq-0uKMx-84">
          <mxGeometry width="50" height="50" relative="1" as="geometry">
            <mxPoint x="421" y="490" as="sourcePoint" />
            <mxPoint x="660" y="330" as="targetPoint" />
          </mxGeometry>
        </mxCell>
        <mxCell id="iwrKPTFdiz0Ykq-0uKMx-108" value="Post nas redes" style="swimlane;html=1;fontStyle=0;childLayout=stackLayout;horizontal=1;startSize=26;fillColor=#e0e0e0;horizontalStack=0;resizeParent=1;resizeLast=0;collapsible=1;marginBottom=0;swimlaneFillColor=#ffffff;align=center;rounded=1;shadow=0;comic=0;labelBackgroundColor=none;strokeWidth=1;fontFamily=Verdana;fontSize=12" vertex="1" parent="1">
          <mxGeometry x="760" y="-154" width="311" height="162" as="geometry" />
        </mxCell>
        <mxCell id="iwrKPTFdiz0Ykq-0uKMx-109" value="Posts em redes" style="text;html=1;strokeColor=none;fillColor=none;spacingLeft=4;spacingRight=4;whiteSpace=wrap;overflow=hidden;rotatable=0;points=[[0,0.5],[1,0.5]];portConstraint=eastwest;" vertex="1" parent="iwrKPTFdiz0Ykq-0uKMx-108">
          <mxGeometry y="26" width="311" height="34" as="geometry" />
        </mxCell>
        <mxCell id="iwrKPTFdiz0Ykq-0uKMx-114" value="Sistema de monitoramento" style="text;html=1;strokeColor=none;fillColor=none;spacingLeft=4;spacingRight=4;whiteSpace=wrap;overflow=hidden;rotatable=0;points=[[0,0.5],[1,0.5]];portConstraint=eastwest;" vertex="1" parent="iwrKPTFdiz0Ykq-0uKMx-108">
          <mxGeometry y="60" width="311" height="34" as="geometry" />
        </mxCell>
        <mxCell id="iwrKPTFdiz0Ykq-0uKMx-115" value="Estratégias de aumento&lt;span style=&quot;white-space: pre;&quot;&gt;&#x9;&lt;/span&gt;" style="text;html=1;strokeColor=none;fillColor=none;spacingLeft=4;spacingRight=4;whiteSpace=wrap;overflow=hidden;rotatable=0;points=[[0,0.5],[1,0.5]];portConstraint=eastwest;" vertex="1" parent="iwrKPTFdiz0Ykq-0uKMx-108">
          <mxGeometry y="94" width="311" height="34" as="geometry" />
        </mxCell>
        <mxCell id="iwrKPTFdiz0Ykq-0uKMx-116" value="Sistema de armazenamento de dados" style="text;html=1;strokeColor=none;fillColor=none;spacingLeft=4;spacingRight=4;whiteSpace=wrap;overflow=hidden;rotatable=0;points=[[0,0.5],[1,0.5]];portConstraint=eastwest;" vertex="1" parent="iwrKPTFdiz0Ykq-0uKMx-108">
          <mxGeometry y="128" width="311" height="34" as="geometry" />
        </mxCell>
        <mxCell id="iwrKPTFdiz0Ykq-0uKMx-113" value="" style="endArrow=classic;html=1;rounded=0;exitX=0.75;exitY=0;exitDx=0;exitDy=0;entryX=0.546;entryY=1.137;entryDx=0;entryDy=0;entryPerimeter=0;" edge="1" parent="1" source="iwrKPTFdiz0Ykq-0uKMx-50" target="iwrKPTFdiz0Ykq-0uKMx-116">
          <mxGeometry width="50" height="50" relative="1" as="geometry">
            <mxPoint x="925" y="335" as="sourcePoint" />
            <mxPoint x="960" y="210" as="targetPoint" />
          </mxGeometry>
        </mxCell>
        <mxCell id="iwrKPTFdiz0Ykq-0uKMx-120" value="" style="edgeStyle=segmentEdgeStyle;endArrow=classic;html=1;curved=0;rounded=0;endSize=8;startSize=8;exitX=0.5;exitY=1;exitDx=0;exitDy=0;" edge="1" parent="1" source="iwrKPTFdiz0Ykq-0uKMx-57">
          <mxGeometry width="50" height="50" relative="1" as="geometry">
            <mxPoint x="275.67" y="660" as="sourcePoint" />
            <mxPoint x="679.67" y="580" as="targetPoint" />
            <Array as="points">
              <mxPoint x="210.67000000000002" y="630" />
              <mxPoint x="679.67" y="630" />
            </Array>
          </mxGeometry>
        </mxCell>
      </root>
    </mxGraphModel>
  </diagram>
</mxfile>
